<svg version="1.1" id="Layer_1" xmlns="http://www.w3.org/2000/svg" xmlns:xlink="http://www.w3.org/1999/xlink" x="0px" y="0px"
     width="120px" viewBox="0 0 608 608" enable-background="new 0 0 608 608" xml:space="preserve">
<path fill="#000000" opacity="1.000000" stroke="none" 
    d="
M272.426697,272.258423 
    C283.455780,281.741913 293.077240,292.146118 303.020660,302.204102 
    C306.450165,305.673126 308.114929,305.113953 311.230774,301.956543 
    C332.150879,280.757507 353.291656,259.776337 374.342773,238.706451 
    C381.870422,231.172073 389.313080,223.552567 396.861572,216.039307 
    C401.217957,211.703354 405.913177,208.605545 412.728851,209.343307 
    C418.653534,209.984634 422.473755,213.130966 424.631927,217.931992 
    C427.203888,223.653427 427.004944,229.705795 422.671600,234.827011 
    C420.312622,237.614883 417.666412,240.191574 414.937012,242.624908 
    C412.375305,244.908752 412.295197,246.606110 414.860382,249.112946 
    C422.599548,256.676208 430.401154,264.214111 437.623718,272.259857 
    C455.388763,292.049591 453.634796,327.020081 434.772186,345.622986 
    C405.972687,374.025970 377.332367,402.595215 348.948181,431.412689 
    C327.891296,452.790924 300.093811,456.611145 275.525024,440.481018 
    C267.545166,435.242035 261.413788,427.816956 254.694580,421.127808 
    C236.991913,403.504272 219.300446,385.867645 201.784271,368.059418 
    C192.914566,359.041779 183.039429,350.924622 175.325287,340.870819 
    C158.037170,318.339355 160.588562,286.350372 182.507492,265.322754 
    C211.577469,237.434906 239.775269,208.631699 268.122101,179.998322 
    C288.526825,159.387314 323.506470,158.555069 344.468994,178.698410 
    C351.790161,185.733505 358.791412,193.100769 366.070496,200.180908 
    C368.476410,202.521118 368.817139,204.232422 366.180237,206.714584 
    C360.844635,211.737000 355.658569,216.933182 350.648499,222.280441 
    C347.965454,225.144043 346.008453,225.128235 343.316345,222.280762 
    C337.597137,216.231415 331.606232,210.439133 325.736023,204.532211 
    C313.441803,192.160950 300.674805,192.166748 288.311035,204.532974 
    C259.684784,233.164948 231.054169,261.792511 202.416748,290.413300 
    C193.538437,299.286438 192.452271,312.211212 200.757767,321.487671 
    C209.520920,331.275269 219.003265,340.425415 228.284714,349.741180 
    C248.501404,370.032623 268.862762,390.180359 289.020203,410.530243 
    C299.934998,421.549286 313.335144,421.988647 324.240662,411.128601 
    C352.799286,382.689026 381.138702,354.027039 409.899872,325.794312 
    C421.679535,314.231079 421.169250,298.569641 409.676910,288.701385 
    C402.629242,282.649658 396.263092,275.804291 389.281128,269.014099 
    C388.383392,268.876343 387.750305,270.012329 386.960052,270.803558 
    C364.823792,292.965820 342.712219,315.152771 320.566711,337.305786 
    C311.181427,346.694214 302.852478,346.529694 293.401886,337.050293 
    C280.581116,324.190491 267.699951,311.390594 254.793747,298.616455 
    C248.378067,292.266449 247.006332,284.143738 251.370590,277.344452 
    C255.802597,270.439667 263.105042,268.581055 272.426697,272.258423 
z"/>
</svg>