<svg xmlns="http://www.w3.org/2000/svg" viewBox="0 0 24 24" width="25" height="25" fill="gray">
  <path d="M8.623 9.25c.766 0 1.532.344 2.043.945l-1.021.86c-.256-.258-.682-.43-1.022-.43-.766 0-1.361.688-1.361 1.375 0 .773.595 1.375 1.361 1.375.255 0 .511-.086.682-.172v-.515H8.283v-1.032h2.383v2.149c-.51.601-1.192.945-2.043.945C7.091 14.75 5.9 13.547 5.9 12s1.191-2.75 2.723-2.75zm4.511 5.5h-1.447v-5.5h1.447v5.5zm4.766-5.5v1.46h-2.297v.86h1.702v1.461h-1.703v1.719h-1.447v-5.5H17.9z"/>
  <path clip-rule="evenodd" fill-rule="evenodd" d="M14.1 2.5c1.103 0 1.991-.001 2.709.058.728.06 1.368.185 1.96.487.941.48 1.707 1.245 2.186 2.185.302.593.428 1.233.487 1.961.059.718.058 1.606.058 2.71V14.1c0 1.103.001 1.991-.058 2.709-.06.728-.185 1.368-.487 1.96-.48.941-1.245 1.707-2.185 2.186-.593.302-1.233.428-1.961.487-.718.059-1.606.058-2.71.058H9.9c-1.103 0-1.991.001-2.709-.058-.728-.06-1.368-.185-1.96-.487-.941-.48-1.707-1.245-2.186-2.185-.302-.593-.428-1.233-.487-1.961-.059-.718-.058-1.606-.058-2.71V9.9c0-1.103-.001-1.991.058-2.709.06-.728.185-1.368.487-1.96.48-.941 1.245-1.707 2.185-2.186.593-.302 1.233-.428 1.961-.487.718-.059 1.606-.058 2.71-.058H14.1zm-4.2 2c-1.136 0-1.929 0-2.546.05-.605.05-.953.143-1.216.277-.565.288-1.023.746-1.31 1.31-.135.264-.228.612-.277 1.217C4.5 7.971 4.5 8.764 4.5 9.9v4.2c0 1.136 0 1.929.05 2.545.05.606.143.954.277 1.217.288.565.746 1.023 1.31 1.31.264.135.612.228 1.217.277.617.05 1.41.051 2.546.051h4.2c1.136 0 1.929 0 2.545-.05.606-.05.954-.143 1.217-.277.565-.288 1.023-.746 1.31-1.31.135-.264.228-.612.277-1.218.05-.616.051-1.409.051-2.545V9.9c0-1.136 0-1.929-.05-2.546-.05-.605-.143-.953-.277-1.216-.288-.565-.746-1.023-1.31-1.31-.264-.135-.612-.228-1.218-.277C16.03 4.5 15.236 4.5 14.1 4.5H9.9z"/>
</svg>