<svg xmlns="http://www.w3.org/2000/svg" viewBox="0 0 24 24" width="25" height="25" fill="gray">
  <path d="M8.688 13.453c.067.13.137.248.215.367.683 1.058 1.875 1.658 3.1 1.655 1.225.005 2.416-.593 3.095-1.652.077-.119.146-.238.212-.367l1.38.588c-.07.188-.146.365-.237.545-.788 1.628-2.629 2.714-4.452 2.686-1.824.024-3.658-1.061-4.451-2.685-.092-.18-.169-.356-.238-.543l1.376-.594zM9.25 8c.828 0 1.5.796 1.5 1.9 0 1.105-.672 1.85-1.5 1.85s-1.5-.745-1.5-1.85c0-1.104.672-1.9 1.5-1.9zm5.5 0c.828 0 1.5.796 1.5 1.9 0 1.105-.672 1.85-1.5 1.85s-1.5-.745-1.5-1.85c0-1.104.672-1.9 1.5-1.9z"/>
  <path clip-rule="evenodd" fill-rule="evenodd" d="M12.008 2c5.523 0 10 4.477 10 10s-4.477 10-10 10-10-4.477-10-10 4.477-10 10-10zm0 2c-4.418 0-8 3.582-8 8s3.582 8 8 8 8-3.582 8-8-3.582-8-8-8z"/>
</svg>